<?xml version="1.0" encoding="UTF-8" standalone="no"?>
<svg
   width="16"
   height="16"
   viewBox="0 0 16 16"
   id="svg2"
   version="1.1"
   inkscape:version="1.1.2 (0a00cf5339, 2022-02-04)"
   sodipodi:docname="checkbox-off.svg"
   xmlns:inkscape="http://www.inkscape.org/namespaces/inkscape"
   xmlns:sodipodi="http://sodipodi.sourceforge.net/DTD/sodipodi-0.dtd"
   xmlns="http://www.w3.org/2000/svg"
   xmlns:svg="http://www.w3.org/2000/svg"
   xmlns:rdf="http://www.w3.org/1999/02/22-rdf-syntax-ns#"
   xmlns:cc="http://creativecommons.org/ns#"
   xmlns:dc="http://purl.org/dc/elements/1.1/">
  <defs
     id="defs4" />
  <sodipodi:namedview
     id="base"
     pagecolor="#ffffff"
     bordercolor="#666666"
     borderopacity="1.0"
     inkscape:pageopacity="0.0"
     inkscape:pageshadow="2"
     inkscape:zoom="15.839192"
     inkscape:cx="6.1240498"
     inkscape:cy="10.385631"
     inkscape:document-units="px"
     inkscape:current-layer="layer1"
     showgrid="true"
     units="px"
     inkscape:snap-bbox="true"
     inkscape:bbox-paths="true"
     inkscape:bbox-nodes="true"
     inkscape:snap-global="false"
     inkscape:window-width="1920"
     inkscape:window-height="988"
     inkscape:window-x="0"
     inkscape:window-y="0"
     inkscape:window-maximized="1"
     inkscape:document-rotation="0"
     inkscape:pagecheckerboard="0"
     inkscape:showpageshadow="0"
     inkscape:deskcolor="#d1d1d1">
    <inkscape:grid
       type="xygrid"
       id="grid3336" />
  </sodipodi:namedview>
  <metadata
     id="metadata7">
    <rdf:RDF>
      <cc:Work
         rdf:about="">
        <dc:format>image/svg+xml</dc:format>
        <dc:type
           rdf:resource="http://purl.org/dc/dcmitype/StillImage" />
      </cc:Work>
    </rdf:RDF>
  </metadata>
  <g
     inkscape:label="Layer 1"
     inkscape:groupmode="layer"
     id="layer1"
     transform="translate(0,-1036.3622)">
    <path
       id="path1127"
       style="fill:#000000;fill-opacity:1;stroke:none;stroke-width:1.78935"
       d="m 1.5625,1036.3622 c -0.86559891,0 -1.5625,0.6969 -1.5625,1.5625 v 12.875 c 0,0.8656 0.69690109,1.5625 1.5625,1.5625 h 12.875 c 0.865599,0 1.5625,-0.6969 1.5625,-1.5625 v -12.875 c 0,-0.8656 -0.696901,-1.5625 -1.5625,-1.5625 z m 0.8046875,1 H 13.632812 c 0.04734,0 0.09455,0 0.140626,0.01 0.04607,0 0.09019,0.011 0.134765,0.02 0.04458,0.01 0.08995,0.02 0.132813,0.033 0.04286,0.013 0.08408,0.03 0.125,0.047 0.04092,0.017 0.08039,0.036 0.11914,0.057 0.03875,0.021 0.07693,0.044 0.113282,0.068 0.03635,0.024 0.07173,0.05 0.105468,0.078 0.03374,0.028 0.06481,0.059 0.0957,0.09 0.03089,0.031 0.06203,0.062 0.08984,0.096 0.02782,0.034 0.0536,0.069 0.07813,0.1055 0.02452,0.036 0.04736,0.074 0.06836,0.1132 0.021,0.039 0.03939,0.078 0.05664,0.1192 0.01725,0.041 0.0336,0.082 0.04687,0.125 0.01328,0.043 0.02413,0.088 0.0332,0.1328 0.0091,0.045 0.01488,0.089 0.01953,0.1348 0.0046,0.046 0.0078,0.093 0.0078,0.1406 v 11.2656 c 0,0.047 -0.0032,0.095 -0.0078,0.1406 -0.0047,0.046 -0.01046,0.09 -0.01953,0.1348 -0.0091,0.045 -0.01993,0.09 -0.0332,0.1328 -0.01328,0.043 -0.02963,0.084 -0.04687,0.125 -0.01725,0.041 -0.03564,0.08 -0.05664,0.1192 -0.021,0.039 -0.04384,0.077 -0.06836,0.1132 -0.02452,0.036 -0.05031,0.072 -0.07813,0.1055 -0.02782,0.034 -0.05896,0.065 -0.08984,0.096 -0.03089,0.031 -0.06197,0.062 -0.0957,0.09 -0.03373,0.028 -0.06911,0.054 -0.105468,0.078 -0.03636,0.024 -0.07453,0.047 -0.113282,0.068 -0.03875,0.021 -0.07822,0.039 -0.11914,0.057 -0.04092,0.017 -0.08214,0.034 -0.125,0.047 -0.04286,0.013 -0.08823,0.024 -0.132813,0.033 -0.04458,0.01 -0.08869,0.015 -0.134765,0.019 -0.04607,0 -0.09329,0.01 -0.140626,0.01 H 2.3671875 c -0.047337,0 -0.094554,-0 -0.140625,-0.01 -0.046071,-0 -0.090187,-0.01 -0.1347656,-0.019 -0.044579,-0.01 -0.089951,-0.02 -0.1328125,-0.033 -0.042862,-0.013 -0.084082,-0.03 -0.125,-0.047 -0.040918,-0.017 -0.080391,-0.036 -0.1191406,-0.057 -0.038749,-0.021 -0.076926,-0.044 -0.1132813,-0.068 -0.036355,-0.024 -0.071734,-0.05 -0.1054687,-0.078 -0.033735,-0.028 -0.064814,-0.059 -0.095703,-0.09 -0.030889,-0.031 -0.062026,-0.062 -0.089844,-0.096 -0.027818,-0.034 -0.053605,-0.069 -0.078125,-0.1055 -0.024521,-0.036 -0.047362,-0.075 -0.068359,-0.1132 -0.020998,-0.039 -0.039391,-0.078 -0.056641,-0.1192 -0.01725,-0.041 -0.033599,-0.082 -0.046875,-0.125 -0.013276,-0.043 -0.024127,-0.088 -0.033203,-0.1328 -0.00908,-0.045 -0.01488,-0.089 -0.019531,-0.1348 C 1.0031617,1050.0896 1,1050.0423 1,1049.995 v -11.2656 c 0,-0.047 0.00316,-0.095 0.00781,-0.1406 0.00465,-0.046 0.010455,-0.09 0.019531,-0.1348 0.00908,-0.045 0.019928,-0.09 0.033203,-0.1328 0.013276,-0.043 0.029625,-0.084 0.046875,-0.125 0.017249,-0.041 0.035643,-0.08 0.056641,-0.1192 0.020998,-0.039 0.043839,-0.077 0.068359,-0.1132 0.02452,-0.036 0.050307,-0.072 0.078125,-0.1055 0.027817,-0.034 0.058955,-0.065 0.089844,-0.096 0.030889,-0.031 0.061968,-0.062 0.095703,-0.09 0.033735,-0.028 0.069114,-0.054 0.1054687,-0.078 0.036355,-0.024 0.074532,-0.047 0.1132813,-0.068 0.038749,-0.021 0.078222,-0.039 0.1191406,-0.057 0.040918,-0.017 0.082138,-0.034 0.125,-0.047 0.042862,-0.013 0.088233,-0.024 0.1328125,-0.033 0.044579,-0.01 0.088695,-0.015 0.1347656,-0.02 0.046071,-0 0.093288,-0.01 0.140625,-0.01 z" />
  </g>
</svg>
